<svg xmlns="http://www.w3.org/2000/svg" xmlns:xlink="http://www.w3.org/1999/xlink" version="1.1" x="0px" y="0px" viewBox="0 0 32 40" enable-background="new 0 0 32 32" xml:space="preserve"><g display="none"><rect x="-195.333" y="-60.646" display="inline" fill="#000000" width="473.333" height="236"/></g><g display="none"><g display="inline"><rect x="6.146" y="5.291" transform="matrix(0.7071 -0.7071 0.7071 0.7071 -6.3769 16.6047)" fill="#000000" width="21.418" height="21.418"/></g><g display="inline"><g><rect x="0" y="13.998" fill="#000000" width="19.269" height="4.005"/></g><g><g><rect x="0" y="6.366" fill="#000000" width="4.005" height="19.269"/></g><g><rect x="7.632" y="6.366" fill="#000000" width="4.005" height="19.269"/></g><g><rect x="15.264" y="6.366" fill="#000000" width="4.005" height="19.269"/></g></g></g></g><g display="none"><polygon display="inline" fill="#000000" points="8.132,21.007 4.627,17.502 3.505,17.502 3.505,17.795 8.132,22.421  "/><polygon display="inline" fill="#000000" points="16.855,0.855 10.845,6.866 11.137,6.866 11.137,7.988 16.855,2.269 30.586,16    16.855,29.731 11.137,24.012 11.137,25.134 10.844,25.134 16.855,31.145 32,16  "/><polygon display="inline" fill="#000000" points="3.505,14.205 3.505,14.497 4.627,14.497 8.132,10.993 8.132,9.578  "/><path display="inline" fill="#000000" d="M18.269,7.366v6.632v4.005v6.632h-2.005v-6.632v-1h-1h-3.627h-1v1v6.632H8.632v-6.632v-1   h-1H4.005h-1v1v6.632H1v-6.632v-4.005V7.366h2.005v6.632v1h1h3.627h1v-1V7.366h2.005v6.632v1h1h3.627h1v-1V7.366H18.269    M19.269,6.366h-4.005v7.632h-3.627V6.366H7.632v7.632H4.005V6.366H0v7.632v4.005v7.632h4.005v-7.632h3.627v7.632h4.005v-7.632   h3.627v7.632h4.005v-7.632v-4.005V6.366L19.269,6.366z"/></g><g display="none"><g display="inline"><circle fill="#000000" cx="16" cy="16" r="16"/></g><g display="inline"><polygon fill="#000000" points="30.897,15.956 16.917,1.771 3.833,14.713 4.567,17.901 16.871,30.078   "/></g><g display="inline"><polygon points="8.132,21.007 4.627,17.502 3.505,17.502 3.505,17.795 8.132,22.421   "/></g><g display="inline"><polygon points="16.855,0.855 10.845,6.866 11.137,6.866 11.137,7.988 16.855,2.269 30.586,16 16.855,29.731 11.137,24.012     11.137,25.134 10.844,25.134 16.855,31.145 32,16   "/></g><g display="inline"><polygon points="3.505,14.205 3.505,14.497 4.627,14.497 8.132,10.993 8.132,9.578   "/></g><g display="inline"><rect x="0.489" y="6.787" fill="#000000" width="2.997" height="18.503"/></g><g display="inline"><rect x="7.535" y="6.787" transform="matrix(4.431193e-11 1 -1 4.431193e-11 25.0722 7.0054)" fill="#000000" width="2.997" height="18.503"/></g><g display="inline"><rect x="8.289" y="6.787" fill="#000000" width="2.997" height="18.503"/></g><g display="inline"><rect x="16.09" y="6.787" fill="#000000" width="2.997" height="18.503"/></g><g display="inline"><path d="M18.269,7.366v6.632v4.005v6.632h-2.005v-6.632v-1h-1h-3.627h-1v1v6.632H8.632v-6.632v-1h-1H4.005h-1v1v6.632H1v-6.632    v-4.005V7.366h2.005v6.632v1h1h3.627h1v-1V7.366h2.005v6.632v1h1h3.627h1v-1V7.366H18.269 M19.269,6.366h-4.005v7.632h-3.627    V6.366H7.632v7.632H4.005V6.366H0v7.632v4.005v7.632h4.005v-7.632h3.627v7.632h4.005v-7.632h3.627v7.632h4.005v-7.632v-4.005    V6.366L19.269,6.366z"/></g></g><g><g><path d="M0,16l16,16l16-16L16,0L0,16z M16,29.172L2.828,16L16,2.828L29.172,16L16,29.172z"/><polygon points="14.751,9.991 14.751,14.751 12.489,14.751 12.489,9.991 9.991,9.991 9.991,14.751 9.991,17.249 9.991,22.009     12.489,22.009 12.489,17.249 14.751,17.249 14.751,22.009 17.249,22.009 17.249,17.249 19.511,17.249 19.511,22.009     22.009,22.009 22.009,17.249 22.009,14.751 22.009,9.991 19.511,9.991 19.511,14.751 17.249,14.751 17.249,9.991   "/></g></g></svg>